<?xml version="1.0" encoding="iso-8859-1"?>
<!-- Generator: Adobe Illustrator 18.1.1, SVG Export Plug-In . SVG Version: 6.00 Build 0)  -->
<svg version="1.1" id="Capa_1" xmlns="http://www.w3.org/2000/svg" xmlns:xlink="http://www.w3.org/1999/xlink" x="0px" y="0px"
	 viewBox="0 0 525.153 525.153" style="enable-background:new 0 0 525.153 525.153;" xml:space="preserve">
<g>
	<path d="M388.941,474.563c-7.352,0-14.157-1.51-19.212-3.764c-17.965-9.321-30.59-22.21-43.259-60.108
		c-12.866-39.452-37.089-57.898-60.371-75.841c-19.978-15.448-40.699-31.334-58.642-63.981
		c-13.391-24.223-20.722-50.787-20.722-74.309c0-70.764,55.622-126.343,126.365-126.343s126.365,55.579,126.365,126.343h50.546
		c0-99.276-77.613-176.933-176.911-176.933c-99.319,0-176.911,77.657-176.911,176.933c0,31.816,9.628,67.001,27.067,98.619
		c22.975,41.662,50.043,62.646,72.033,79.582c20.437,15.645,35.12,27.067,43.194,51.815c15.164,45.951,34.638,71.749,68.97,89.735
		c12.91,5.799,27.089,8.84,41.487,8.84c55.863,0,101.092-45.207,101.092-101.092h-50.546
		C439.487,451.828,416.73,474.563,388.941,474.563z M152.382,35.885L116.496,0C66.191,50.283,35.12,119.822,35.12,196.582
		c0,76.847,31.072,146.364,81.377,196.626l35.623-35.645c-40.918-41.181-66.454-98.028-66.454-160.981
		C85.666,133.695,111.223,76.825,152.382,35.885z M249.951,196.582c0,34.879,28.293,63.237,63.171,63.237
		s63.193-28.358,63.193-63.237s-28.314-63.193-63.193-63.193C278.243,133.411,249.951,161.725,249.951,196.582z"/>
</g>
<g>
</g>
<g>
</g>
<g>
</g>
<g>
</g>
<g>
</g>
<g>
</g>
<g>
</g>
<g>
</g>
<g>
</g>
<g>
</g>
<g>
</g>
<g>
</g>
<g>
</g>
<g>
</g>
<g>
</g>
</svg>
